<svg width="190" height="178" viewBox="0 0 190 178" fill="none" xmlns="http://www.w3.org/2000/svg">
<path d="M92.755 1.11387C112.667 9.06351 99.3914 46.9887 116.941 59.3055C134.094 71.3446 169.641 42.3078 178.506 61.2974C187.197 79.9154 146.394 87.9622 139.325 107.255C134.252 121.098 151.508 136.41 145.976 150.077C140.262 164.19 125.915 175.967 110.792 177.735C95.7536 179.494 85.1604 162.568 70.4691 158.907C54.0433 154.814 34.6508 165.114 20.8428 155.321C6.7862 145.352 -1.3929 126.228 0.195986 109.069C1.74909 92.296 19.6558 82.8076 28.8634 68.7021C36.6496 56.774 40.3142 42.9711 50.0995 32.6196C62.4934 19.5086 75.9992 -5.57576 92.755 1.11387Z" fill="#E7F3FA"/>
<path d="M186.569 153.555C186.719 157.896 182.018 160.503 178.506 163.195C175.16 165.759 171.733 168.341 167.524 168.15C162.316 167.914 156.684 166.489 154.075 162.088C151.316 157.432 152.084 151.408 154.775 146.639C157.269 142.217 162.053 139.279 167.161 138.891C171.502 138.561 174.449 142.297 177.874 144.884C181.319 147.488 186.421 149.263 186.569 153.555Z" fill="#E7F3FA"/>
<path d="M174.643 90.2737C180.241 91.8409 181.554 98.5269 183.482 103.821C185.319 108.865 187.144 114.012 185.099 118.982C182.569 125.131 178.341 131.31 171.615 132.666C164.497 134.101 157.147 130.755 152.218 125.61C147.648 120.839 145.95 113.921 147.641 107.641C149.079 102.303 155.103 100.273 159.867 97.2089C164.66 94.1259 169.107 88.7237 174.643 90.2737Z" fill="#E7F3FA"/>
<path d="M138.925 14.3597C143.12 16.7106 143.251 22.4001 144.531 27.1373C145.791 31.8024 148.381 36.628 146.081 40.852C143.576 45.4539 138.312 47.6034 133.198 47.9515C128.002 48.3053 122.657 46.7413 119.259 42.678C115.919 38.6841 115.481 33.104 116.456 27.9306C117.402 22.9127 120.04 18.3993 124.323 15.8127C128.76 13.1327 134.406 11.8275 138.925 14.3597Z" fill="#E7F3FA"/>
</svg>
