<svg width="156" height="163" viewBox="0 0 156 163" fill="none" xmlns="http://www.w3.org/2000/svg">
<path d="M71.014 5.51299C82.5031 12.6004 81.6334 29.8464 89.736 40.6436C94.851 47.4597 102.268 51.5928 109.255 56.4715C124.666 67.2326 155.01 67.9262 155.71 86.7098C156.353 103.991 121.445 97.7872 111.315 111.803C101.1 125.938 118.233 158.746 101.142 162.214C81.7673 166.145 77.6439 127.188 58.4292 122.535C43.1023 118.824 30.1333 148.624 16.0138 141.601C3.16473 135.209 15.1854 113.473 12.0549 99.4673C9.69742 88.9201 0.115078 80.7715 0.0015489 69.9646C-0.116499 58.7277 6.53802 48.9775 11.4182 38.8549C17.2507 26.7568 19.7456 11.2561 31.4666 4.69862C43.1728 -1.85067 59.5976 -1.52949 71.014 5.51299Z" fill="#E7F3FA"/>
<path d="M107.575 13.4775C112.317 11.3352 116.603 6.16135 121.832 8.92629C127.047 11.6846 127.374 18.9787 128.899 24.7544C130.221 29.7596 131.675 34.8105 129.788 39.0553C127.509 44.1849 123.783 49.1249 118.08 49.095C112.242 49.0644 107.22 43.8291 102.872 38.9141C98.3165 33.7651 92.6267 27.7474 93.7622 21.6064C94.8619 15.6591 102.429 15.8022 107.575 13.4775Z" fill="#E7F3FA"/>
<path d="M143.011 112.307C146.495 115.139 146.263 119.875 145.609 124.021C145.043 127.604 142.71 130.442 139.756 132.942C135.939 136.17 132.037 140.888 126.889 139.855C121.665 138.807 119.648 133.247 118.349 128.647C117.318 124.998 118.708 121.432 120.752 118.135C122.767 114.885 125.374 111.887 129.39 110.836C134.005 109.628 139.467 109.426 143.011 112.307Z" fill="#E7F3FA"/>
</svg>
