<svg width="180" height="152" viewBox="0 0 180 152" fill="none" xmlns="http://www.w3.org/2000/svg">
<path d="M105.522 1.65458C116.927 2.74518 128.45 2.7406 138.573 8.106C149.948 14.135 159.638 22.8429 166.292 33.8641C174.002 46.6355 179.687 60.7962 179.387 75.7116C179.046 92.7107 180.349 117.279 164.492 123.415C145.871 130.62 129.504 103.941 109.574 102.724C97.1804 101.967 88.829 117.12 76.4461 118.037C59.9325 119.26 37.752 122.567 28.6768 108.716C19.4557 94.6435 36.88 77.0064 38.5942 60.2693C39.9514 47.0182 31.0989 32.7285 37.6475 21.129C44.1981 9.52597 58.8485 5.38189 71.6562 1.7071C82.7312 -1.47053 94.0521 0.557808 105.522 1.65458Z" fill="#E7F3FA"/>
<path d="M100.504 114.304C104.659 110.96 110.505 111.439 115.425 113.121C119.358 114.466 120.932 118.569 123.2 122.063C125.869 126.177 131.297 129.995 129.391 134.646C127.484 139.297 120.839 138.199 116.046 139.515C111.632 140.727 107.295 143.778 103.236 141.83C98.5748 139.593 95.6278 134.699 95.1084 129.467C94.5567 123.91 96.1082 117.84 100.504 114.304Z" fill="#E7F3FA"/>
<path d="M23.8509 38.4187C28.0364 41.5749 31.9864 45.7747 32.7749 51.8086C33.6408 58.4349 32.0014 65.5472 27.9765 69.9885C24.0496 74.3215 18.4144 74.6295 13.2849 73.3148C8.52548 72.0948 4.33745 68.6267 1.96644 63.3215C-0.363912 58.1074 -0.635062 51.8193 1.21711 46.3131C3.01505 40.9682 6.8244 37.1637 11.2893 35.6064C15.6002 34.1028 20.018 35.5283 23.8509 38.4187Z" fill="#E7F3FA"/>
</svg>
