<svg width="188" height="162" viewBox="0 0 188 162" fill="none" xmlns="http://www.w3.org/2000/svg">
<path d="M123.213 27.332C140.519 31.6866 162.891 20.7776 175.286 33.6151C187.298 46.0557 183.33 67.8191 178.272 84.3561C173.929 98.5549 159.295 106.013 149.682 117.329C142.237 126.093 137.765 137.081 128.14 143.371C117.945 150.035 105.819 156.258 93.8905 153.793C82.1624 151.37 78.425 135.09 67.2483 130.788C48.6438 123.628 23.2058 135.698 9.43064 121.288C-3.17535 108.102 -2.26125 83.4645 6.96236 67.7253C16.2096 51.9456 40.3545 54.5388 54.9818 43.5593C66.8272 34.668 68.8472 13.8847 83.2565 10.4578C97.6128 7.04344 108.902 23.731 123.213 27.332Z" fill="#E7F3FA"/>
<path d="M174.073 120.219C180.558 121.732 183.296 129.109 185.519 135.4C187.664 141.473 189.629 148.5 185.924 153.766C182.392 158.785 175.18 157.595 169.145 158.668C162.55 159.841 155.125 164.576 150.101 160.137C145.032 155.658 147.322 147.421 148.989 140.858C150.278 135.785 153.978 132.306 158.016 128.983C162.972 124.906 167.827 118.762 174.073 120.219Z" fill="#E7F3FA"/>
<path d="M38.7782 0.523705C47.0735 2.02932 54.3706 6.60254 57.24 12.8893C59.807 18.5136 55.3208 24.0506 51.9637 29.4129C48.7531 34.5414 45.8352 40.2485 38.9471 42.1091C31.403 44.1469 23.131 42.5151 16.5477 38.9794C9.41348 35.1478 3.39075 29.5884 3.02004 22.8136C2.63888 15.8479 7.73782 9.50606 14.6975 5.16772C21.5055 0.923971 30.3055 -1.01411 38.7782 0.523705Z" fill="#E7F3FA"/>
</svg>
