<svg width="183" height="177" viewBox="0 0 183 177" fill="none" xmlns="http://www.w3.org/2000/svg">
<path d="M95.5482 43.2751C118.343 37.4473 135.601 7.31636 158.175 13.948C175.691 19.0937 175.503 47.8289 172.108 65.7665C168.982 82.2856 148.658 89.2207 141.088 104.232C134.409 117.477 139.937 134.664 131.288 146.715C121.102 160.909 106.622 173.766 89.3407 176.333C71.6028 178.968 51.8077 173.058 39.0958 160.409C26.9376 148.312 31.5165 127.843 24.7627 112.077C18.5977 97.686 -6.10016 86.1671 1.4062 72.4275C10.5268 55.7331 38.1751 65.4335 55.0469 56.6454C62.8101 52.6018 62.4706 39.0351 70.7826 36.2911C79.0958 33.5468 87.0665 45.4435 95.5482 43.2751Z" fill="#E7F3FA"/>
<path d="M173.017 107.229C174.931 112.406 177.362 117.927 174.906 122.91C172.254 128.291 166.589 131.784 160.689 132.241C155.123 132.671 149.944 129.516 146.501 125.107C143.549 121.328 143.748 116.268 144.468 111.473C145.131 107.059 146.866 103.016 150.252 100.133C154.339 96.6521 159.337 92.9203 164.401 94.4986C169.518 96.0936 171.14 102.153 173.017 107.229Z" fill="#E7F3FA"/>
<path d="M86.118 4.12911C89.6293 6.66091 91.705 10.3369 92.4236 14.4778C93.2336 19.146 93.6958 24.4228 90.2264 27.8063C86.6669 31.2777 80.9807 31.4532 75.9861 30.5085C71.3931 29.6398 67.5116 26.9221 65.1554 23.0643C62.833 19.2618 62.3886 14.7669 63.8161 10.5825C65.3369 6.1248 68.185 1.75447 72.8898 0.39306C77.5196 -0.946652 82.259 1.34659 86.118 4.12911Z" fill="#E7F3FA"/>
<path d="M43.4367 28.4826C47.7754 28.9369 52.957 27.9939 55.5712 30.8119C58.2809 33.733 56.5386 37.7077 55.2297 41.1954C53.8423 44.8922 52.4514 48.9123 48.1383 50.6173C43.3429 52.5129 37.1895 52.5943 32.9166 50.0156C28.9286 47.6089 29.4737 43.0275 28.9586 39.0423C28.4655 35.2276 26.5544 30.7225 30.0894 28.1442C33.5565 25.6155 38.7928 27.9965 43.4367 28.4826Z" fill="#E7F3FA"/>
</svg>
