<svg width="203" height="173" viewBox="0 0 203 173" fill="none" xmlns="http://www.w3.org/2000/svg">
<path d="M101.966 13.469C115.39 18.83 115.534 40.4388 128.639 46.5404C147.519 55.3317 181.159 35.0324 189.377 54.1695C197.411 72.8757 160.28 82.2893 151.973 100.875C146.291 113.585 160.761 132.656 150.227 141.758C139.371 151.136 122.238 135.907 108.17 138.719C94.6651 141.419 85.9382 158.69 72.2319 157.347C58.5648 156.009 51.161 141.044 40.7281 132.115C27.0941 120.445 6.56293 114.05 1.52254 96.8265C-3.5622 79.4512 4.86153 60.192 15.3654 45.4467C25.2852 31.5213 41.5243 24.0793 57.5631 18.1569C71.8134 12.8949 87.8582 7.83531 101.966 13.469Z" fill="#E7F3FA"/>
<path d="M187.842 95.0979C193.54 97.1629 200.473 98.6683 202.517 105.716C204.507 112.58 199.918 119.206 196.558 125.152C193.918 129.823 190.56 133.778 186.095 134.776C181.692 135.76 177.58 133.373 173.864 130.223C169.22 126.287 163.795 122.337 163.128 115.31C162.363 107.249 165.05 98.4929 170.435 94.0894C175.569 89.8905 181.967 92.9686 187.842 95.0979Z" fill="#E7F3FA"/>
<path d="M23.519 137.586C28.2646 138.421 33.2234 138.292 36.6151 141.942C40.9993 146.66 45.1243 152.844 43.7209 159.327C42.2393 166.171 36.3736 171.569 29.922 172.86C24.3327 173.978 20.3357 168.139 15.4767 164.978C10.8221 161.95 4.54044 160.812 2.8738 155.262C0.963738 148.9 2.11893 140.899 6.99381 136.726C11.5249 132.846 17.7938 136.577 23.519 137.586Z" fill="#E7F3FA"/>
<path d="M150.308 0.567264C156.621 1.56577 162.198 4.50222 165.696 9.18584C169.32 14.038 171.412 20.0959 168.897 25.4536C166.47 30.622 159.762 32.358 153.825 34.4681C147.106 36.856 140.021 40.8613 133.539 38.0202C126.589 34.9742 123.63 27.7454 123.071 20.9883C122.534 14.494 125.03 7.89864 130.697 3.65024C135.993 -0.320575 143.432 -0.520335 150.308 0.567264Z" fill="#E7F3FA"/>
</svg>
