<svg width="175" height="168" viewBox="0 0 175 168" fill="none" xmlns="http://www.w3.org/2000/svg">
<path d="M95.7396 7.42028C107.801 14.0311 107.322 33.0917 118.853 40.5888C135.489 51.4046 169.923 39.1844 174.349 58.5274C178.759 77.7996 144.845 83.3066 132.082 98.4053C124.906 106.895 122.474 117.759 116.407 127.074C107.123 141.328 103.644 163.799 87.0512 167.547C71.1689 171.135 60.3171 150.697 45.9775 142.984C31.5926 135.246 10.221 136.684 2.71022 122.179C-4.82744 107.623 5.18455 90.1221 10.5913 74.6472C14.8506 62.4566 24.078 53.5393 30.5886 42.3874C38.1362 29.4593 38.7088 10.9713 51.8991 3.89194C65.0839 -3.18449 82.6175 0.228169 95.7396 7.42028Z" fill="#E7F3FA"/>
<path d="M137.867 10.94C141.004 13.5777 142.305 17.5476 141.94 21.4453C141.578 25.3216 139.667 29.1827 135.983 31.0878C132.553 32.8623 128.411 31.7433 124.796 30.3132C121.698 29.0879 119.323 26.8759 118.06 23.9974C116.766 21.0472 116.539 17.7885 118.043 14.924C119.716 11.7386 122.552 9.05279 126.306 8.29839C130.387 7.47814 134.782 8.34588 137.867 10.94Z" fill="#E7F3FA"/>
<path d="M145.111 131.001C148.951 135.009 145.779 141.447 145.596 147.088C145.424 152.431 147.736 158.455 144.101 162.254C140.158 166.375 133.743 166.718 128.362 165.099C123.28 163.57 119.214 159.436 117.5 154.253C115.975 149.643 118.236 145.049 120.28 140.66C122.364 136.187 124.448 131.444 128.939 129.697C134.264 127.625 141.106 126.819 145.111 131.001Z" fill="#E7F3FA"/>
<path d="M152.15 98.4813C148.983 98.6207 146.062 99.7569 143.423 101.733C140.306 104.066 136.818 106.631 136.442 110.24C136.031 114.203 138.461 117.524 141.546 119.791C144.92 122.27 149.339 124.787 153.55 122.81C157.571 120.922 157.113 115.612 158.854 111.664C160.51 107.911 164.944 104.222 163.234 100.861C161.516 97.4825 156.244 98.301 152.15 98.4813Z" fill="#E7F3FA"/>
</svg>
