<svg width="213" height="169" viewBox="0 0 213 169" fill="none" xmlns="http://www.w3.org/2000/svg">
<path d="M126.102 2.2233C142.702 -0.0483012 165.535 -3.78445 174.876 10.1258C184.852 24.9804 170.987 44.9127 166.38 62.2026C163.523 72.9223 154.118 81.032 153.039 92.0731C151.538 107.431 166.279 123.545 159.051 137.179C152.386 149.752 133.827 148.793 120.429 153.588C105.211 159.034 90.4685 171.263 74.79 167.334C59.1376 163.411 43.104 149.726 41.1171 133.712C38.8669 115.576 69.9941 102.668 64.6002 85.2074C58.4642 65.3445 14.6337 69.9611 15.0023 49.1753C15.3161 31.4803 48.8442 41.9533 65.4747 35.9002C74.6806 32.5495 82.0445 26.4137 90.6087 21.6565C102.604 14.9932 112.506 4.08362 126.102 2.2233Z" fill="#D7F9D6"/>
<path d="M179.721 93.007C183.734 94.1924 188.583 94.7291 190.286 98.3594C192.069 102.162 190.257 106.591 187.672 109.958C185.325 113.016 181.544 114.6 177.561 114.937C173.75 115.261 169.793 114.356 167.205 111.694C164.75 109.168 164.899 105.544 165.103 102.12C165.326 98.3773 165.071 93.9548 168.383 91.8895C171.72 89.8096 175.906 91.88 179.721 93.007Z" fill="#D7F9D6"/>
<path d="M203.529 42.1073C208.681 46.5299 212.908 53.1356 212.999 60.9148C213.087 68.4445 208.46 74.1707 203.963 79.2191C199.373 84.3719 194.232 90.0056 188.116 88.8469C181.89 87.6673 177.302 80.9588 174.917 73.7162C172.828 67.37 174.685 60.6597 176.74 54.2966C178.862 47.7304 181.076 40.534 186.424 38.1008C192.156 35.4926 198.507 37.7958 203.529 42.1073Z" fill="#D7F9D6"/>
<path d="M45.4391 92.7149C46.7888 98.7649 44.5585 104.789 41.4201 110.315C38.2103 115.968 34.2837 121.656 28.1747 123.117C21.6535 124.677 14.532 122.792 10.2598 117.766C6.31 113.119 7.27816 106.173 8.43835 99.8975C9.44758 94.4384 12.0944 89.7626 16.1378 85.971C21.3701 81.0644 27.1318 74.5892 33.7922 76.1221C40.6621 77.7033 43.8573 85.6243 45.4391 92.7149Z" fill="#D7F9D6"/>
</svg>
