<svg width="189" height="179" viewBox="0 0 189 179" fill="none" xmlns="http://www.w3.org/2000/svg">
<path d="M108.649 38.3222C125.759 37.9832 143.606 24.431 158.627 32.632C173.162 40.5683 178.844 60.2321 179.105 76.791C179.353 92.4801 167.877 105.199 159.986 118.761C153.246 130.344 148.279 144.164 136.35 150.272C124.823 156.175 111.053 152.531 98.2861 150.357C87.771 148.567 79.5278 141.215 69.1318 138.829C52.5737 135.028 32.8741 142.937 19.6264 132.301C5.94592 121.318 -3.23883 101.195 1.07321 84.1894C5.43897 66.9719 25.7792 59.9057 40.5028 49.9701C51.1952 42.7548 62.3066 36.4618 75.0214 34.2885C86.3794 32.3471 97.128 38.5504 108.649 38.3222Z" fill="#D7F9D6"/>
<path d="M182.084 114.38C187.747 116.363 189.183 123.975 188.982 130.577C188.802 136.516 186.231 142.241 181.178 144.165C175.785 146.219 169.544 144.456 166.37 139.187C163.435 134.313 165.685 128.279 168.722 123.483C172.049 118.232 176.576 112.451 182.084 114.38Z" fill="#D7F9D6"/>
<path d="M65.7121 145.021C73.7593 145.4 78.4381 152.924 80.4637 160.315C82.1447 166.449 79.8114 172.86 74.34 176.503C68.9839 180.068 62.0129 179.676 56.5817 176.214C50.1374 172.106 44.3534 165.804 46.4296 158.711C48.8031 150.602 56.8445 144.603 65.7121 145.021Z" fill="#D7F9D6"/>
<path d="M126.767 19.1372C126.464 24.8067 120.682 27.6282 115.608 29.8695C110.283 32.2221 103.947 35.08 100.322 30.8193C96.1978 25.9722 97.0438 18.23 100.801 12.4664C104.485 6.81563 110.933 3.81601 116.922 5.3545C122.879 6.8849 127.121 12.5349 126.767 19.1372Z" fill="#D7F9D6"/>
</svg>
