<svg width="182" height="134" viewBox="0 0 182 134" fill="none" xmlns="http://www.w3.org/2000/svg">
<path d="M102.413 21.6449C114.011 25.1639 114.355 42.0247 120.338 52.5651C124.62 60.1103 126.481 68.9061 132.682 74.9742C147.626 89.5986 182.366 91.6185 181.597 112.514C180.916 131.016 148.607 127.735 130.583 131.971C119.85 134.493 109.094 131.983 98.0696 132.141C90.0539 132.257 82.4548 132.785 74.4382 132.778C63.8396 132.768 53.2635 135.393 43.1917 132.093C29.653 127.658 8.16948 124.898 7.03655 110.696C5.77982 94.9428 37.3365 92.298 38.7615 76.5587C40.6322 55.8968 1.95223 36.0141 15.2406 20.082C27.9822 4.80544 51.3176 37.3014 71.2072 37.658C83.0993 37.8712 91.0311 18.1915 102.413 21.6449Z" fill="#D7F9D6"/>
<path d="M151.965 27.2502C156.676 30.2905 157.484 37.8446 158.406 44.387C159.249 50.374 159.559 56.6014 156.807 61.6068C153.815 67.0489 149.045 71.099 143.774 70.9982C138.579 70.8988 134.476 66.2041 131.229 61.1176C127.974 56.0165 125.102 49.9288 126.263 43.5595C127.423 37.1915 132.17 33.4041 136.818 30.4548C141.625 27.4047 147.175 24.1588 151.965 27.2502Z" fill="#D7F9D6"/>
<path d="M59.0874 4.66282C62.5947 4.68555 66.588 3.43784 69.0131 6.07107C71.5315 8.8056 70.6936 12.9865 70.1437 16.668C69.5409 20.7031 69.3111 25.4515 65.8275 27.3975C62.2664 29.3868 58.0538 27.2356 54.3106 25.5127C50.464 23.7422 46.0871 21.9238 44.9251 17.7768C43.7351 13.5303 45.6628 8.86936 48.826 5.94025C51.5011 3.46323 55.4557 4.63929 59.0874 4.66282Z" fill="#D7F9D6"/>
<path d="M17.7988 66.3705C21.8984 69.5279 22.8532 75.9838 21.2897 81.4377C19.8953 86.3022 15.6867 88.7999 11.3157 88.9864C6.78829 89.1795 1.92101 87.3399 0.410162 82.3282C-1.09699 77.3288 1.77592 72.4171 5.3358 69.1502C9.01844 65.7706 13.8904 63.3603 17.7988 66.3705Z" fill="#D7F9D6"/>
</svg>
