<svg width="178" height="154" viewBox="0 0 178 154" fill="none" xmlns="http://www.w3.org/2000/svg">
<path d="M105.486 20.5125C121.42 24.0108 138.935 9.41523 153.314 17.119C167.885 24.9249 177.543 42.6422 177.646 59.1715C177.748 75.6555 167.921 92.8048 153.837 101.369C140.441 109.515 122.156 95.4693 107.756 101.67C94.6908 107.297 93.4173 127.904 80.1721 133.093C64.7951 139.117 40.3777 145.508 31.6575 131.483C21.4533 115.071 43.8579 95.5277 44.8145 76.226C45.3068 66.2941 36.2467 58.3642 35.7736 48.4314C35.1732 35.8251 33.4978 21.3719 41.7472 11.8208C50.0386 2.22108 64.6755 -1.29642 77.2438 0.41745C88.9285 2.01082 93.9677 17.9836 105.486 20.5125Z" fill="#D7F9D6"/>
<path d="M25.6568 62.3426C30.0708 65.0997 35.0663 68.0342 35.8787 73.3706C36.7124 78.8471 33.1025 83.6346 29.5164 87.6967C25.7817 91.9272 21.4087 96.6541 15.9675 95.925C10.6151 95.2078 7.98527 89.2476 5.12663 84.4286C2.35171 79.7507 -1.06203 74.8609 0.315567 69.5395C1.76212 63.9517 6.56133 59.8829 11.8714 58.3749C16.7103 57.0006 21.3462 59.6501 25.6568 62.3426Z" fill="#D7F9D6"/>
<path d="M162.854 110.222C166.876 112.064 168.257 116.186 168.868 120.027C169.384 123.264 168.387 126.531 165.839 128.981C163.506 131.223 159.923 131.581 156.429 131.986C152.044 132.493 146.903 134.221 143.82 131.529C140.655 128.765 142.382 124.318 143.336 120.552C144.271 116.865 145.264 112.943 149.037 110.946C153.155 108.767 158.582 108.267 162.854 110.222Z" fill="#D7F9D6"/>
<path d="M122.52 113.895C127.508 116.078 129.451 122.059 130.904 127.565C132.284 132.797 132.672 138.273 130.209 143.038C127.416 148.441 123.052 153.698 117.243 153.989C111.555 154.273 107.237 149.159 103.79 144.358C100.848 140.262 99.5192 135.297 100.156 130.194C100.807 124.984 103.095 120.165 107.183 117.186C111.704 113.891 117.448 111.675 122.52 113.895Z" fill="#D7F9D6"/>
</svg>
