<svg width="174" height="184" viewBox="0 0 174 184" fill="none" xmlns="http://www.w3.org/2000/svg">
<path d="M94.326 6.13854C109.162 11.2792 126.464 15.6532 134.252 29.2876C141.983 42.8241 133.719 59.5151 133.717 75.104C133.715 90.0923 142.288 106.51 134.241 119.155C126.191 131.805 106.873 129.495 94.1034 137.354C79.4046 146.399 71.2513 170.044 54.0613 168.5C36.997 166.966 30.029 145.143 20.7203 130.76C13.7988 120.065 10.5871 108.137 7.07147 95.8929C3.69005 84.1161 0.519551 72.7292 0.540254 60.4766C0.56667 44.8421 -2.85658 26.9735 7.20813 15.0094C17.3224 2.98636 35.4035 2.04529 51.0342 0.453673C65.8131 -1.05121 80.2893 1.27498 94.326 6.13854Z" fill="#D7F9D6"/>
<path d="M121.137 138.861C125.319 138.06 130.172 136.154 133.532 139.114C136.853 142.039 134.982 146.82 134.839 150.932C134.713 154.573 135.442 158.606 132.773 160.977C129.849 163.574 125.331 164.337 121.287 162.972C117.443 161.674 115.279 157.985 113.437 154.449C111.56 150.846 109.429 146.795 111.1 143.413C112.77 140.031 117.255 139.605 121.137 138.861Z" fill="#D7F9D6"/>
<path d="M158.222 54.0022C165.284 53.8767 170.792 59.1308 172.976 65.3755C175.178 71.6714 173.921 78.7448 168.297 82.8058C162.047 87.3189 153.087 88.781 146.876 84.2213C141.146 80.0153 142.82 72.2766 145.226 65.8688C147.438 59.9765 151.51 54.1215 158.222 54.0022Z" fill="#D7F9D6"/>
<path d="M101.068 155.06C103.979 157.675 105.08 161.771 104.995 165.814C104.913 169.737 103.152 173.129 100.629 176.001C97.3264 179.758 93.8645 184.425 89.0382 183.969C83.7333 183.467 78.786 179.203 77.2747 173.793C75.9177 168.934 79.8973 164.708 82.464 160.433C84.485 157.067 86.4659 153.484 90.0985 152.435C93.9035 151.336 98.0594 152.358 101.068 155.06Z" fill="#D7F9D6"/>
</svg>
