<svg width="154" height="187" viewBox="0 0 154 187" fill="none" xmlns="http://www.w3.org/2000/svg">
<path d="M93.1069 20.1637C108.518 22.2212 121.473 37.2265 125.709 52.1859C129.805 66.6503 113.221 79.8655 114.259 94.8628C115.3 109.891 132.066 120.597 131.487 135.65C130.783 153.945 128.251 179.854 110.778 185.318C91.853 191.234 78.0196 164.38 59.1586 158.264C46.5271 154.167 31.204 163.373 20.1973 155.944C9.14534 148.485 6.79988 133.446 3.31717 120.575C0.0963573 108.673 -0.885749 96.6259 0.842394 84.4167C2.68637 71.3892 3.47108 56.3044 13.6026 47.9099C23.6839 39.557 39.3115 46.615 51.6725 42.3011C66.7628 37.0348 77.2646 18.0486 93.1069 20.1637Z" fill="#D7F9D6"/>
<path d="M144.482 66.7808C147.642 69.1877 150.279 73.0396 150.148 78.2161C150.021 83.2111 147.014 87.6893 143.861 91.2266C141.047 94.3832 137.713 95.7145 134.315 95.977C130.243 96.2914 124.827 97.5047 123.464 92.8018C122.116 88.1458 127.337 83.5777 129.255 78.5096C130.935 74.0688 130.443 68.228 133.72 65.7033C137.309 62.9396 141.387 64.4228 144.482 66.7808Z" fill="#D7F9D6"/>
<path d="M56.3233 5.13228C60.5 10.1813 62.127 17.8089 60.1868 24.3694C58.4295 30.3112 52.7454 33.0064 47.4951 34.9829C43.3216 36.5539 38.7737 36.3999 34.9942 33.8528C31.6427 31.5941 30.3802 27.1918 29.5354 22.8796C28.7247 18.7414 28.6825 14.555 30.4858 10.8406C32.7681 6.13911 35.7657 1.49567 40.4153 0.468445C46.0714 -0.781178 52.3832 0.369301 56.3233 5.13228Z" fill="#D7F9D6"/>
</svg>
