<svg width="164" height="200" viewBox="0 0 164 200" fill="none" xmlns="http://www.w3.org/2000/svg">
<path d="M77.8243 49.348C97.404 48.5557 113.012 11.9396 129.104 23.1221C145.343 34.4073 116.384 62.4363 123.312 80.9585C129.622 97.8259 166.907 97.6059 163.587 115.306C160.226 133.231 124.897 119.906 113.359 134.031C100.75 149.466 121.004 187.576 101.441 191.387C81.0854 195.352 83.1223 150.162 63.3961 143.763C43.9794 137.464 22.9327 171.334 5.73336 160.34C-8.90215 150.984 9.01981 126.796 9.69933 109.439C10.2417 95.5858 5.81223 82.1038 9.32143 68.6912C13.3717 53.2107 15.8475 31.4304 31.2469 27.0821C48.1503 22.309 60.2743 50.0582 77.8243 49.348Z" fill="#D7F9D6"/>
<path d="M135.208 135.032C139.923 135.314 143.944 138.334 147.408 142.039C151.075 145.962 155.039 150.432 155 156.205C154.96 161.969 151.207 166.74 147.216 170.204C143.748 173.213 139.367 173.296 135.034 173.534C130.319 173.794 125.123 175.132 121.515 171.619C117.732 167.935 116.957 161.689 117.002 155.976C117.046 150.287 118.266 144.52 121.756 140.504C125.257 136.477 130.272 134.737 135.208 135.032Z" fill="#D7F9D6"/>
<path d="M52.3272 185.294C46.636 184.342 39.0965 186.224 36.454 181.276C33.7659 176.243 38.0514 170.059 41.5957 165.198C44.4445 161.292 48.6896 158.687 53.4409 157.981C57.7194 157.345 61.6652 159.088 64.8432 161.744C67.9361 164.329 69.7522 167.863 70.1215 171.921C70.5838 177.001 71.3547 183.194 67.087 186.401C62.8308 189.6 57.419 186.146 52.3272 185.294Z" fill="#D7F9D6"/>
<path d="M83.4256 1.20516C91.3736 4.4517 97.1668 12.5853 95.7996 21.1598C94.6159 28.5842 85.8815 30.4695 78.5628 31.7053C72.9007 32.6613 67.0487 31.3799 63.8383 26.5567C59.9638 20.7358 58.2148 13.0804 62.4861 7.55211C67.4522 1.12455 75.9551 -1.84638 83.4256 1.20516Z" fill="#D7F9D6"/>
</svg>
