<svg width="181" height="176" viewBox="0 0 181 176" fill="none" xmlns="http://www.w3.org/2000/svg">
<path d="M115.243 14.6212C131.754 16.8916 150.755 5.92375 164.381 15.5202C176.948 24.371 184.748 44.9956 177.934 58.7735C169.965 74.8865 144.097 71.0158 130.899 83.2201C123.423 90.1326 126.986 103.374 120.886 111.526C113.237 121.748 104.45 133.612 91.8155 135.449C79.248 137.276 68.5999 126.684 57.3669 120.759C45.9795 114.753 28.1246 112.952 25.3331 100.384C22.1864 86.2164 42.3177 76.4047 44.3229 62.031C45.8434 51.131 33.2566 41.8017 35.0208 30.9385C36.9022 19.3543 43.4928 7.13617 54.0655 2.04197C64.6686 -3.06691 77.1091 2.73389 88.6377 5.10434C98.0235 7.03421 105.751 13.3158 115.243 14.6212Z" fill="#FFE8F3"/>
<path d="M106.454 141.516C112.378 138.595 116.855 131.081 123.447 133.329C130.039 135.577 127.997 143.742 129.86 149.498C131.346 154.091 134.996 158.467 132.974 162.777C130.569 167.903 125.366 171.941 118.876 172.909C111.772 173.968 104.343 172.015 98.7504 167.881C92.6646 163.383 86.7151 156.924 88.5868 150.518C90.3482 144.49 100.152 144.624 106.454 141.516Z" fill="#FFE8F3"/>
<path d="M149.826 90.0968C155.359 91.0314 157.344 97.6828 159.611 102.857C161.821 107.901 164.301 113.265 162.211 118.361C159.961 123.848 154.785 127.801 148.978 128.784C143.405 129.727 137.479 127.536 133.862 123.158C130.784 119.432 132.308 114.171 132.932 109.362C133.433 105.499 134.432 101.954 136.991 99.0361C140.615 94.9038 144.431 89.1855 149.826 90.0968Z" fill="#FFE8F3"/>
<path d="M17.1664 45.0067C22.3164 44.8456 27.0348 47.6124 30.0606 51.3932C32.9751 55.0349 33.6515 59.6906 32.4029 64.0449C31.178 68.3167 28.314 72.5821 23.6347 73.8035C19.3999 74.9088 16.048 71.0673 12.0677 69.3527C7.88316 67.5502 1.87273 67.7566 0.372609 63.7833C-1.19893 59.6209 2.5196 55.5765 5.57618 52.1591C8.67282 48.6968 12.2521 45.1604 17.1664 45.0067Z" fill="#FFE8F3"/>
</svg>
