<svg width="229" height="188" viewBox="0 0 229 188" fill="none" xmlns="http://www.w3.org/2000/svg">
<path d="M119.433 18.1361C134.568 21.2308 153.05 11.4741 164.869 21.4217C176.767 31.4357 173.688 50.5162 176.148 65.8714C178.131 78.2431 182.402 91.0826 177.906 102.778C173.62 113.93 157.442 116.342 152.556 127.245C145.221 143.615 158.293 169.112 143.582 179.377C130.44 188.547 112.4 173.041 98.6 164.896C87.8632 158.558 83.382 145.638 73.5138 138.018C63.5443 130.32 48.7239 130.154 40.8618 120.313C32.2448 109.527 23.5275 94.4708 28.4044 81.5556C33.5437 67.9458 57.2667 70.8397 64.3434 58.129C73.6133 41.4794 56.9893 13.7115 72.4103 2.51642C86.0076 -7.35474 102.971 14.7701 119.433 18.1361Z" fill="#FFE8F3"/>
<path d="M34.1378 149.976C40.7197 151.901 48.9548 149.165 53.5642 153.991C58.6808 159.347 60.6024 167.855 57.5138 174.447C54.5949 180.676 46.118 181.677 39.4057 184.207C34.0197 186.237 28.4978 189.25 23.0217 187.447C17.7354 185.707 15.7813 180.086 12.9952 175.511C10.1727 170.876 6.76809 166.497 7.01243 161.159C7.32754 154.275 7.80102 145.332 14.5031 142.569C21.2174 139.801 27.138 147.929 34.1378 149.976Z" fill="#FFE8F3"/>
<path d="M214.664 47.0987C219.154 47.5577 223.306 49.5418 226.072 52.7181C228.726 55.7667 229.106 59.6848 228.979 63.5378C228.841 67.6889 228.45 71.9832 225.33 75.0757C221.794 78.5814 216.715 81.6901 211.499 80.8661C206.453 80.0692 204.72 74.7375 201.371 71.2911C197.958 67.7785 191.937 65.4419 192.001 60.8014C192.065 56.0811 197.269 52.8786 201.661 50.2229C205.52 47.8897 210.027 46.6247 214.664 47.0987Z" fill="#FFE8F3"/>
<path d="M26.388 49.6347C28.6634 58.2426 24.1402 66.603 20.2663 73.0384C16.2591 79.695 11.3545 87.1261 6.52836 82.6251C1.1407 77.6003 -1.20765 65.2286 0.60364 54.7003C2.07797 46.1306 8.04623 46.2977 12.9436 45.3355C17.9449 44.353 24.2041 41.3723 26.388 49.6347Z" fill="#FFE8F3"/>
</svg>
