<svg width="180" height="189" viewBox="0 0 180 189" fill="none" xmlns="http://www.w3.org/2000/svg">
<path d="M98.3103 1.25024C114.495 5.33567 133.996 11.8406 140.005 27.4141C146.354 43.8718 130.054 60.4995 127.925 78.0106C126.457 90.0828 132.191 101.979 129.497 113.838C126.523 126.927 124.981 146.973 111.747 149.218C95.0363 152.052 84.7845 119.534 68.4863 124.186C47.8278 130.082 49.4292 169.867 28.1853 173.067C12.5286 175.425 7.34179 149.183 2.40505 134.138C-1.71529 121.582 0.207066 108.162 2.62324 95.1697C4.52467 84.9454 14.563 77.453 14.8801 67.0583C15.46 48.0422 -4.66763 28.0898 5.16584 11.8033C13.4893 -1.98236 36.1978 7.06237 52.1989 5.24948C67.7947 3.48252 83.0921 -2.59125 98.3103 1.25024Z" fill="#FFE8F3"/>
<path d="M178.715 24.8938C181.619 29.3522 178.896 35.6093 177.447 41.0086C176.244 45.4894 174.804 50.0303 171.372 52.2524C167.803 54.5627 163.473 54.5483 159.832 52.4112C156.235 50.3005 154.18 46.0273 152.932 41.4315C151.489 36.1151 149.632 29.8514 152.521 25.4828C155.398 21.1332 160.82 22.6515 165.422 22.548C170.132 22.4421 175.798 20.4164 178.715 24.8938Z" fill="#FFE8F3"/>
<path d="M68.1596 155.125C74.3456 156.024 79.698 160.798 81.5994 166.666C83.2501 171.759 79.4489 176.551 76.5725 181.085C74.37 184.557 71.6495 187.765 67.608 188.721C63.6657 189.654 59.7483 188.132 56.4201 185.852C52.9165 183.451 49.9311 180.306 49.2672 176.154C48.4866 171.27 49.3552 166.166 52.6815 162.463C56.6738 158.02 62.1999 154.259 68.1596 155.125Z" fill="#FFE8F3"/>
<path d="M160.599 66.0129C166.842 67.1883 174.688 64.9226 178.292 69.8263C182 74.8715 178.92 81.6182 176.14 87.1593C173.658 92.105 169.57 95.9188 164.16 97.9922C157.999 100.353 150.445 102.851 145.202 99.0159C140.105 95.2872 143.131 87.9848 142.284 81.9896C141.328 75.2192 134.721 67.289 140.064 62.6278C145.409 57.9657 153.431 64.663 160.599 66.0129Z" fill="#FFE8F3"/>
</svg>
