<svg width="185" height="203" viewBox="0 0 185 203" fill="none" xmlns="http://www.w3.org/2000/svg">
<path d="M89.1414 2.75626C103.829 -2.76579 127.248 -0.417306 134.101 13.6984C142.886 31.7941 111.863 54.9784 122.717 71.9143C134.592 90.4436 183.216 70.1736 184.381 92.151C185.512 113.48 141.578 99.497 124.885 112.822C116.282 119.689 124.39 135.311 118.59 144.668C111.129 156.705 101.419 176.361 87.7154 172.788C72.0678 168.709 76.576 142.248 65.2061 130.75C57.9268 123.388 44.1274 127.642 36.3344 120.826C27.5394 113.134 23.9724 101.559 19.4912 90.7682C12.715 74.4514 -7.96031 54.8759 3.2879 41.2512C15.5687 26.3757 42.5695 49.3859 60.1709 41.4937C75.1387 34.7825 73.7871 8.52898 89.1414 2.75626Z" fill="#FFE8F3"/>
<path d="M32.6412 140.92C40.0209 138.732 49.1619 137.26 55.697 143.07C62.0982 148.761 59.7801 157.886 60.7502 165.912C61.8078 174.661 67.9007 185.918 61.4511 190.672C55.0116 195.419 45.3669 187.067 37.0701 183.367C30.9655 180.645 24.3504 178.492 20.9311 172.601C17.3887 166.499 17.6752 159.569 19.8462 153.695C22.1072 147.578 26.3956 142.771 32.6412 140.92Z" fill="#FFE8F3"/>
<path d="M162.024 42.6983C164.728 47.4865 167.705 52.3624 166.413 57.968C165.052 63.8751 161.014 69.4478 155.382 71.5276C150.195 73.4427 145.348 70.0675 140.763 67.4392C136.627 65.0684 132.095 62.5436 131.262 57.7029C130.427 52.8458 134.126 48.6487 136.78 44.2856C140.553 38.0811 142.443 28.3 149.411 27.862C156.389 27.4232 158.641 36.7088 162.024 42.6983Z" fill="#FFE8F3"/>
</svg>
