<svg width="204" height="168" viewBox="0 0 204 168" fill="none" xmlns="http://www.w3.org/2000/svg">
<path d="M128.628 36.6841C148.854 41.2534 167.346 11.1545 186.884 18.1012C201.543 23.3132 207.797 48.5959 200.007 62.0631C190.268 78.9002 162.895 73.517 147.761 85.7354C141.243 90.9974 143.859 101.608 141.189 109.548C134.943 128.128 138.097 153.486 121.484 163.892C107.716 172.515 84.7167 164.065 75.4163 150.745C64.9249 135.719 83.5713 112.677 74.5768 96.7101C66.9852 83.2336 38.3903 91.3097 33.6425 76.5887C29.4082 63.4599 47.1019 52.7264 57.4488 43.603C65.4085 36.5846 77.893 37.5153 85.8802 30.5282C95.3614 22.234 94.7144 -1.69971 107.183 0.0958119C121.418 2.1457 114.6 33.515 128.628 36.6841Z" fill="#FFE8F3"/>
<path d="M16.8673 80.1396C20.7356 80.7485 24.4368 82.5221 26.5142 85.9763C28.8535 89.866 29.8259 94.6919 28.18 98.9498C26.4409 103.449 22.6365 107.075 18.0466 107.883C13.7519 108.638 10.0242 105.609 6.65044 102.739C3.4339 100.002 -0.0682411 96.8561 0.00101067 92.5298C0.0687008 88.301 3.65065 85.3368 6.968 82.8998C9.90526 80.742 13.3138 79.5803 16.8673 80.1396Z" fill="#FFE8F3"/>
<path d="M173.564 117.589C178.321 119.545 179.961 125.446 180.852 130.506C181.547 134.45 179.673 138.112 177.804 141.655C176.212 144.672 173.891 146.882 171.144 148.907C167.133 151.863 163.41 156.948 158.549 155.847C153.58 154.721 151.306 148.918 149.77 144.066C148.404 139.752 148.943 135.214 150.696 131.041C152.401 126.984 155.41 123.84 159.206 121.607C163.658 118.988 168.786 115.625 173.564 117.589Z" fill="#FFE8F3"/>
<path d="M51.0555 103.162C53.8043 104.781 55.9661 107.192 56.6608 110.28C57.4078 113.602 56.9782 117.174 54.7989 119.807C52.4974 122.587 48.9531 124.256 45.3316 123.968C41.788 123.685 38.8541 121.328 36.9131 118.382C35.0642 115.576 34.5219 112.17 35.433 108.944C36.3591 105.665 38.4673 102.658 41.691 101.465C44.8181 100.308 48.1867 101.473 51.0555 103.162Z" fill="#FFE8F3"/>
</svg>
