<svg width="192" height="178" viewBox="0 0 192 178" fill="none" xmlns="http://www.w3.org/2000/svg">
<path d="M125.79 9.92779C136.919 22.5172 129.597 42.4575 131.078 59.1951C131.768 66.9947 131.998 74.4305 132.189 82.2582C132.356 89.0788 133.651 95.7258 132.132 102.377C130.444 109.772 125.283 115.555 122.939 122.769C117.174 140.512 124.481 166.548 108.277 175.793C95.0314 183.35 78.3391 165.652 69.295 153.374C61.2037 142.39 66.1501 126.872 62.5474 113.714C60.5956 106.585 57.2382 100.188 53.0631 94.0886C44.8557 82.0982 23.4995 74.9425 26.2413 60.6731C28.717 47.7887 52.9283 55.7062 62.2182 46.4417C73.4392 35.2512 68.9114 12.3074 82.6533 4.41448C95.4411 -2.9305 116.023 -1.12127 125.79 9.92779Z" fill="#FFE8F3"/>
<path d="M174.917 18.8202C182.512 21.9871 189.823 28.5323 191.585 38.2589C193.404 48.3047 188.981 58.1774 183.429 65.8125C178.04 73.2243 170.735 78.4856 162.715 77.9644C154.785 77.4492 147.693 71.5453 143.421 63.2128C139.458 55.483 138.971 45.6173 141.789 37.1454C144.249 29.7517 150.703 26.9121 156.578 23.6623C162.586 20.3389 168.683 16.2208 174.917 18.8202Z" fill="#FFE8F3"/>
<path d="M32.2715 101.202C39.3557 102.646 43.2317 110.082 46.5874 116.844C50.2708 124.266 55.5451 132.884 51.6021 140.155C47.7323 147.291 38.0915 146.107 30.347 146.792C24.2779 147.329 18.3864 147.017 13.2537 143.546C7.04298 139.346 -0.25426 134.073 0.00680829 126.275C0.265786 118.539 8.47408 114.856 14.3675 110.277C19.9795 105.916 25.4358 99.8089 32.2715 101.202Z" fill="#FFE8F3"/>
</svg>
