<svg width="194" height="194" viewBox="0 0 194 194" fill="none" xmlns="http://www.w3.org/2000/svg">
<path d="M92.8971 10.0544C105.536 2.63293 123.007 16.8434 132.037 28.3883C140.744 39.52 133.332 56.6234 139.33 69.4198C144.646 80.7601 164.174 84.284 164.107 96.808C164.041 109.311 146.984 114.192 139.041 123.848C132.541 131.75 127.453 140.076 121.607 148.473C111.196 163.428 108.348 198.595 91.1027 192.71C70.3899 185.642 79.7601 151.466 71.2682 131.295C68.546 124.829 64.6189 118.365 58.4204 115.079C40.8492 105.764 13.3928 112.326 3.23559 95.2277C-4.47857 82.2418 9.16793 61.5848 22.8811 55.2533C38.5814 48.0043 58.7744 72.2557 73.303 62.8767C89.3542 52.5148 76.4221 19.7285 92.8971 10.0544Z" fill="#FFE8F3"/>
<path d="M180.056 138.406C184.564 144.018 183.121 151.613 181.848 158.536C180.714 164.7 178.601 170.65 173.465 174.238C167.809 178.189 160.693 180.095 153.94 178.033C146.666 175.811 138.948 170.802 137.904 163.379C136.936 156.507 145.996 153.562 149.683 147.785C153.445 141.89 152.322 132.281 159.083 130.193C166.507 127.901 175.117 132.257 180.056 138.406Z" fill="#FFE8F3"/>
<path d="M57.5565 0.0034057C62.057 0.0830945 67.2292 0.950181 69.382 4.55815C71.4112 7.95888 67.8951 11.6097 66.6985 15.3248C65.5217 18.9786 66.4009 23.9023 62.6279 25.529C58.8043 27.1776 54.7316 24.1344 51.2045 22.0052C48.1558 20.1649 45.5004 17.8797 44.5999 14.6465C43.5962 11.0426 43.6713 7.04125 46.2312 4.14823C48.9197 1.10976 53.2781 -0.0723504 57.5565 0.0034057Z" fill="#FFE8F3"/>
<path d="M29.0617 3.10741C35.3136 5.19244 39.363 10.4998 41.728 16.3374C44.0964 22.1835 45.3854 29.0061 41.6501 34.1801C38.0877 39.1144 30.9956 40.2067 24.6666 39.9699C19.662 39.7827 16.3185 36.0197 12.396 33.0855C7.62456 29.5163 0.626669 27.2772 0.0588201 21.5621C-0.576483 15.1682 4.02093 9.24004 9.66956 5.64579C15.3595 2.02522 22.5892 0.94878 29.0617 3.10741Z" fill="#FFE8F3"/>
</svg>
